<mxfile host="app.diagrams.net" modified="2023-11-01T18:52:26.429Z" agent="Mozilla/5.0 (Windows NT 10.0; Win64; x64) AppleWebKit/537.36 (KHTML, like Gecko) Chrome/118.0.0.0 Safari/537.36" etag="gwxJVWVD5fPgqCY3zvUl" version="22.0.8" type="device">
  <diagram name="Página-1" id="cowbihlGmz0i0esi1rtL">
    <mxGraphModel dx="1304" dy="716" grid="1" gridSize="10" guides="1" tooltips="1" connect="1" arrows="1" fold="1" page="1" pageScale="1" pageWidth="827" pageHeight="1169" math="0" shadow="0">
      <root>
        <mxCell id="0" />
        <mxCell id="1" parent="0" />
        <mxCell id="qYe-6Fo6dkP2x0P8Gogv-17" style="edgeStyle=orthogonalEdgeStyle;rounded=0;orthogonalLoop=1;jettySize=auto;html=1;entryX=0;entryY=0.5;entryDx=0;entryDy=0;" parent="1" source="qYe-6Fo6dkP2x0P8Gogv-18" edge="1">
          <mxGeometry relative="1" as="geometry">
            <mxPoint x="1010" y="382.5" as="targetPoint" />
          </mxGeometry>
        </mxCell>
        <mxCell id="qYe-6Fo6dkP2x0P8Gogv-18" value="aluguel de jogos" style="rhombus;whiteSpace=wrap;html=1;" parent="1" vertex="1">
          <mxGeometry x="780" y="342.5" width="80" height="80" as="geometry" />
        </mxCell>
        <mxCell id="qYe-6Fo6dkP2x0P8Gogv-19" style="edgeStyle=orthogonalEdgeStyle;rounded=0;orthogonalLoop=1;jettySize=auto;html=1;" parent="1" source="qYe-6Fo6dkP2x0P8Gogv-20" target="qYe-6Fo6dkP2x0P8Gogv-18" edge="1">
          <mxGeometry relative="1" as="geometry" />
        </mxCell>
        <mxCell id="qYe-6Fo6dkP2x0P8Gogv-20" value="" style="rounded=1;whiteSpace=wrap;html=1;" parent="1" vertex="1">
          <mxGeometry x="500" y="352.5" width="120" height="60" as="geometry" />
        </mxCell>
        <mxCell id="qYe-6Fo6dkP2x0P8Gogv-22" value="" style="rounded=1;whiteSpace=wrap;html=1;" parent="1" vertex="1">
          <mxGeometry x="1010" y="352.5" width="120" height="60" as="geometry" />
        </mxCell>
        <mxCell id="qYe-6Fo6dkP2x0P8Gogv-23" value="cliente" style="text;html=1;strokeColor=none;fillColor=none;align=center;verticalAlign=middle;whiteSpace=wrap;rounded=0;" parent="1" vertex="1">
          <mxGeometry x="1030" y="370" width="80" height="25" as="geometry" />
        </mxCell>
        <mxCell id="qYe-6Fo6dkP2x0P8Gogv-24" value="" style="ellipse;whiteSpace=wrap;html=1;" parent="1" vertex="1">
          <mxGeometry x="940" y="272.5" width="60" height="40" as="geometry" />
        </mxCell>
        <mxCell id="qYe-6Fo6dkP2x0P8Gogv-25" value="" style="endArrow=none;html=1;rounded=0;entryX=0.25;entryY=0;entryDx=0;entryDy=0;" parent="1" source="qYe-6Fo6dkP2x0P8Gogv-24" target="qYe-6Fo6dkP2x0P8Gogv-22" edge="1">
          <mxGeometry width="50" height="50" relative="1" as="geometry">
            <mxPoint x="960" y="382.5" as="sourcePoint" />
            <mxPoint x="1030" y="332.5" as="targetPoint" />
          </mxGeometry>
        </mxCell>
        <mxCell id="qYe-6Fo6dkP2x0P8Gogv-26" value="" style="ellipse;whiteSpace=wrap;html=1;" parent="1" vertex="1">
          <mxGeometry x="990" y="242.5" width="60" height="40" as="geometry" />
        </mxCell>
        <mxCell id="qYe-6Fo6dkP2x0P8Gogv-27" value="" style="endArrow=none;html=1;rounded=0;exitX=0.5;exitY=1;exitDx=0;exitDy=0;entryX=0.5;entryY=0;entryDx=0;entryDy=0;" parent="1" source="qYe-6Fo6dkP2x0P8Gogv-26" target="qYe-6Fo6dkP2x0P8Gogv-22" edge="1">
          <mxGeometry width="50" height="50" relative="1" as="geometry">
            <mxPoint x="1000" y="342.5" as="sourcePoint" />
            <mxPoint x="1071" y="332.5" as="targetPoint" />
          </mxGeometry>
        </mxCell>
        <mxCell id="qYe-6Fo6dkP2x0P8Gogv-28" value="" style="ellipse;whiteSpace=wrap;html=1;" parent="1" vertex="1">
          <mxGeometry x="1050" y="217.5" width="60" height="40" as="geometry" />
        </mxCell>
        <mxCell id="qYe-6Fo6dkP2x0P8Gogv-29" value="" style="endArrow=none;html=1;rounded=0;exitX=0.825;exitY=0.017;exitDx=0;exitDy=0;exitPerimeter=0;entryX=0.5;entryY=1;entryDx=0;entryDy=0;" parent="1" source="qYe-6Fo6dkP2x0P8Gogv-22" target="qYe-6Fo6dkP2x0P8Gogv-32" edge="1">
          <mxGeometry width="50" height="50" relative="1" as="geometry">
            <mxPoint x="1020" y="362.5" as="sourcePoint" />
            <mxPoint x="1080" y="262.5" as="targetPoint" />
          </mxGeometry>
        </mxCell>
        <mxCell id="qYe-6Fo6dkP2x0P8Gogv-30" value="&lt;u&gt;&lt;font style=&quot;vertical-align: inherit;&quot;&gt;&lt;font style=&quot;vertical-align: inherit;&quot;&gt;cadastro&lt;/font&gt;&lt;/font&gt;&lt;/u&gt;" style="text;html=1;strokeColor=none;fillColor=none;align=center;verticalAlign=middle;whiteSpace=wrap;rounded=0;" parent="1" vertex="1">
          <mxGeometry x="940" y="277.5" width="60" height="30" as="geometry" />
        </mxCell>
        <mxCell id="qYe-6Fo6dkP2x0P8Gogv-31" value="&lt;u&gt;número&lt;/u&gt;" style="text;html=1;strokeColor=none;fillColor=none;align=center;verticalAlign=middle;whiteSpace=wrap;rounded=0;" parent="1" vertex="1">
          <mxGeometry x="990" y="247.5" width="60" height="30" as="geometry" />
        </mxCell>
        <mxCell id="qYe-6Fo6dkP2x0P8Gogv-32" value="&lt;u&gt;cód. de acesso&lt;/u&gt;" style="text;html=1;strokeColor=none;fillColor=none;align=center;verticalAlign=middle;whiteSpace=wrap;rounded=0;" parent="1" vertex="1">
          <mxGeometry x="1050" y="222.5" width="60" height="30" as="geometry" />
        </mxCell>
        <mxCell id="qYe-6Fo6dkP2x0P8Gogv-33" value="locadora" style="text;html=1;strokeColor=none;fillColor=none;align=center;verticalAlign=middle;whiteSpace=wrap;rounded=0;" parent="1" vertex="1">
          <mxGeometry x="530" y="367.5" width="60" height="30" as="geometry" />
        </mxCell>
        <mxCell id="qYe-6Fo6dkP2x0P8Gogv-37" value="valor que deve" style="ellipse;whiteSpace=wrap;html=1;" parent="1" vertex="1">
          <mxGeometry x="930" y="432.5" width="80" height="50" as="geometry" />
        </mxCell>
        <mxCell id="qYe-6Fo6dkP2x0P8Gogv-38" value="" style="endArrow=none;html=1;rounded=0;exitX=0.5;exitY=0;exitDx=0;exitDy=0;entryX=0.192;entryY=0.983;entryDx=0;entryDy=0;entryPerimeter=0;" parent="1" source="qYe-6Fo6dkP2x0P8Gogv-37" target="qYe-6Fo6dkP2x0P8Gogv-22" edge="1">
          <mxGeometry width="50" height="50" relative="1" as="geometry">
            <mxPoint x="970" y="452.5" as="sourcePoint" />
            <mxPoint x="1020" y="402.5" as="targetPoint" />
          </mxGeometry>
        </mxCell>
        <mxCell id="qYe-6Fo6dkP2x0P8Gogv-39" value="" style="ellipse;whiteSpace=wrap;html=1;" parent="1" vertex="1">
          <mxGeometry x="1010" y="472.5" width="70" height="50" as="geometry" />
        </mxCell>
        <mxCell id="qYe-6Fo6dkP2x0P8Gogv-40" value="último jogo que pegou" style="text;html=1;strokeColor=none;fillColor=none;align=center;verticalAlign=middle;whiteSpace=wrap;rounded=0;" parent="1" vertex="1">
          <mxGeometry x="1015" y="482.5" width="60" height="30" as="geometry" />
        </mxCell>
        <mxCell id="qYe-6Fo6dkP2x0P8Gogv-41" value="" style="endArrow=none;html=1;rounded=0;exitX=0.5;exitY=0;exitDx=0;exitDy=0;entryX=0.5;entryY=1;entryDx=0;entryDy=0;" parent="1" source="qYe-6Fo6dkP2x0P8Gogv-39" target="qYe-6Fo6dkP2x0P8Gogv-22" edge="1">
          <mxGeometry width="50" height="50" relative="1" as="geometry">
            <mxPoint x="1020" y="472.5" as="sourcePoint" />
            <mxPoint x="1045" y="412.5" as="targetPoint" />
          </mxGeometry>
        </mxCell>
        <mxCell id="qYe-6Fo6dkP2x0P8Gogv-43" value="" style="endArrow=none;html=1;rounded=0;exitX=0.5;exitY=0;exitDx=0;exitDy=0;entryX=0.75;entryY=1;entryDx=0;entryDy=0;" parent="1" target="qYe-6Fo6dkP2x0P8Gogv-22" edge="1">
          <mxGeometry width="50" height="50" relative="1" as="geometry">
            <mxPoint x="1135" y="502.5" as="sourcePoint" />
            <mxPoint x="1090" y="412.5" as="targetPoint" />
          </mxGeometry>
        </mxCell>
        <mxCell id="qYe-6Fo6dkP2x0P8Gogv-50" value="categoria de jogos" style="ellipse;whiteSpace=wrap;html=1;" parent="1" vertex="1">
          <mxGeometry x="440" y="260.32" width="90" height="59.68" as="geometry" />
        </mxCell>
        <mxCell id="qYe-6Fo6dkP2x0P8Gogv-52" value="" style="endArrow=none;html=1;rounded=0;exitX=0.25;exitY=0;exitDx=0;exitDy=0;entryX=0.5;entryY=1;entryDx=0;entryDy=0;" parent="1" source="qYe-6Fo6dkP2x0P8Gogv-20" target="qYe-6Fo6dkP2x0P8Gogv-50" edge="1">
          <mxGeometry width="50" height="50" relative="1" as="geometry">
            <mxPoint x="460" y="372.5" as="sourcePoint" />
            <mxPoint x="490" y="312.5" as="targetPoint" />
          </mxGeometry>
        </mxCell>
        <mxCell id="qYe-6Fo6dkP2x0P8Gogv-53" value="dispositivos" style="ellipse;whiteSpace=wrap;html=1;" parent="1" vertex="1">
          <mxGeometry x="520" y="222.5" width="70" height="45" as="geometry" />
        </mxCell>
        <mxCell id="qYe-6Fo6dkP2x0P8Gogv-54" value="" style="endArrow=none;html=1;rounded=0;entryX=0.5;entryY=0;entryDx=0;entryDy=0;exitX=0.5;exitY=1;exitDx=0;exitDy=0;" parent="1" source="qYe-6Fo6dkP2x0P8Gogv-53" target="qYe-6Fo6dkP2x0P8Gogv-20" edge="1">
          <mxGeometry width="50" height="50" relative="1" as="geometry">
            <mxPoint x="500" y="282.5" as="sourcePoint" />
            <mxPoint x="510" y="342.5" as="targetPoint" />
            <Array as="points" />
          </mxGeometry>
        </mxCell>
        <mxCell id="Bew-xmC5klucbXw2Gbvf-2" style="edgeStyle=orthogonalEdgeStyle;rounded=0;orthogonalLoop=1;jettySize=auto;html=1;entryX=0;entryY=0.5;entryDx=0;entryDy=0;" parent="1" edge="1">
          <mxGeometry relative="1" as="geometry">
            <mxPoint x="1158" y="900" as="targetPoint" />
            <mxPoint x="1008" y="900" as="sourcePoint" />
          </mxGeometry>
        </mxCell>
        <mxCell id="Bew-xmC5klucbXw2Gbvf-3" style="edgeStyle=orthogonalEdgeStyle;rounded=0;orthogonalLoop=1;jettySize=auto;html=1;" parent="1" source="Bew-xmC5klucbXw2Gbvf-4" edge="1">
          <mxGeometry relative="1" as="geometry">
            <mxPoint x="928" y="900" as="targetPoint" />
          </mxGeometry>
        </mxCell>
        <mxCell id="Bew-xmC5klucbXw2Gbvf-4" value="" style="rounded=1;whiteSpace=wrap;html=1;" parent="1" vertex="1">
          <mxGeometry x="650" y="870" width="118" height="60" as="geometry" />
        </mxCell>
        <mxCell id="Bew-xmC5klucbXw2Gbvf-5" value="" style="rounded=1;whiteSpace=wrap;html=1;" parent="1" vertex="1">
          <mxGeometry x="1158" y="870" width="120" height="60" as="geometry" />
        </mxCell>
        <mxCell id="Bew-xmC5klucbXw2Gbvf-6" value="&lt;font style=&quot;vertical-align: inherit;&quot;&gt;&lt;font style=&quot;vertical-align: inherit;&quot;&gt;loja&lt;/font&gt;&lt;/font&gt;" style="text;html=1;strokeColor=none;fillColor=none;align=center;verticalAlign=middle;whiteSpace=wrap;rounded=0;" parent="1" vertex="1">
          <mxGeometry x="678" y="885" width="60" height="30" as="geometry" />
        </mxCell>
        <mxCell id="Bew-xmC5klucbXw2Gbvf-7" value="" style="rhombus;whiteSpace=wrap;html=1;" parent="1" vertex="1">
          <mxGeometry x="928" y="860" width="80" height="80" as="geometry" />
        </mxCell>
        <mxCell id="Bew-xmC5klucbXw2Gbvf-9" value="&lt;font style=&quot;vertical-align: inherit;&quot;&gt;&lt;font style=&quot;vertical-align: inherit;&quot;&gt;&lt;font style=&quot;vertical-align: inherit;&quot;&gt;&lt;font style=&quot;vertical-align: inherit;&quot;&gt;consumidor&lt;/font&gt;&lt;/font&gt;&lt;/font&gt;&lt;/font&gt;" style="text;html=1;strokeColor=none;fillColor=none;align=center;verticalAlign=middle;whiteSpace=wrap;rounded=0;" parent="1" vertex="1">
          <mxGeometry x="1190" y="885" width="60" height="30" as="geometry" />
        </mxCell>
        <mxCell id="Bew-xmC5klucbXw2Gbvf-10" value="&lt;font style=&quot;vertical-align: inherit;&quot;&gt;&lt;font style=&quot;vertical-align: inherit;&quot;&gt;estoque&lt;/font&gt;&lt;/font&gt;" style="text;html=1;strokeColor=none;fillColor=none;align=center;verticalAlign=middle;whiteSpace=wrap;rounded=0;" parent="1" vertex="1">
          <mxGeometry x="937" y="885" width="60" height="30" as="geometry" />
        </mxCell>
        <mxCell id="Bew-xmC5klucbXw2Gbvf-11" value="formas de pagamento" style="ellipse;whiteSpace=wrap;html=1;" parent="1" vertex="1">
          <mxGeometry x="600" y="760" width="100" height="64.5" as="geometry" />
        </mxCell>
        <mxCell id="Bew-xmC5klucbXw2Gbvf-13" value="" style="endArrow=none;html=1;rounded=0;entryX=0.5;entryY=1;entryDx=0;entryDy=0;exitX=0.15;exitY=0.017;exitDx=0;exitDy=0;exitPerimeter=0;" parent="1" source="Bew-xmC5klucbXw2Gbvf-4" target="Bew-xmC5klucbXw2Gbvf-11" edge="1">
          <mxGeometry width="50" height="50" relative="1" as="geometry">
            <mxPoint x="660" y="860" as="sourcePoint" />
            <mxPoint x="720" y="820" as="targetPoint" />
          </mxGeometry>
        </mxCell>
        <mxCell id="Bew-xmC5klucbXw2Gbvf-14" value="tecido" style="ellipse;whiteSpace=wrap;html=1;" parent="1" vertex="1">
          <mxGeometry x="290" y="756.25" width="80" height="60" as="geometry" />
        </mxCell>
        <mxCell id="Bew-xmC5klucbXw2Gbvf-16" value="" style="endArrow=none;html=1;rounded=0;exitX=0.1;exitY=-0.021;exitDx=0;exitDy=0;entryX=0.5;entryY=1;entryDx=0;entryDy=0;exitPerimeter=0;" parent="1" source="Bew-xmC5klucbXw2Gbvf-48" target="Bew-xmC5klucbXw2Gbvf-14" edge="1">
          <mxGeometry width="50" height="50" relative="1" as="geometry">
            <mxPoint x="460" y="810" as="sourcePoint" />
            <mxPoint x="510" y="760" as="targetPoint" />
          </mxGeometry>
        </mxCell>
        <mxCell id="Bew-xmC5klucbXw2Gbvf-28" value="pagamento" style="ellipse;whiteSpace=wrap;html=1;" parent="1" vertex="1">
          <mxGeometry x="1100" y="760" width="90" height="62" as="geometry" />
        </mxCell>
        <mxCell id="Bew-xmC5klucbXw2Gbvf-30" value="" style="endArrow=none;html=1;rounded=0;entryX=0.5;entryY=1;entryDx=0;entryDy=0;" parent="1" source="Bew-xmC5klucbXw2Gbvf-5" target="Bew-xmC5klucbXw2Gbvf-28" edge="1">
          <mxGeometry width="50" height="50" relative="1" as="geometry">
            <mxPoint x="1180" y="860" as="sourcePoint" />
            <mxPoint x="1325" y="810" as="targetPoint" />
          </mxGeometry>
        </mxCell>
        <mxCell id="Bew-xmC5klucbXw2Gbvf-36" value="&lt;u&gt;cadastro&lt;/u&gt;" style="ellipse;whiteSpace=wrap;html=1;" parent="1" vertex="1">
          <mxGeometry x="1260" y="760" width="90" height="60" as="geometry" />
        </mxCell>
        <mxCell id="Bew-xmC5klucbXw2Gbvf-56" style="edgeStyle=orthogonalEdgeStyle;rounded=0;orthogonalLoop=1;jettySize=auto;html=1;entryX=0;entryY=0.5;entryDx=0;entryDy=0;" parent="1" source="Bew-xmC5klucbXw2Gbvf-48" target="Bew-xmC5klucbXw2Gbvf-4" edge="1">
          <mxGeometry relative="1" as="geometry" />
        </mxCell>
        <mxCell id="Bew-xmC5klucbXw2Gbvf-48" value="" style="rounded=1;whiteSpace=wrap;html=1;" parent="1" vertex="1">
          <mxGeometry x="370" y="870" width="120" height="60" as="geometry" />
        </mxCell>
        <mxCell id="Bew-xmC5klucbXw2Gbvf-49" style="edgeStyle=orthogonalEdgeStyle;rounded=0;orthogonalLoop=1;jettySize=auto;html=1;exitX=0.5;exitY=1;exitDx=0;exitDy=0;" parent="1" source="Bew-xmC5klucbXw2Gbvf-48" target="Bew-xmC5klucbXw2Gbvf-48" edge="1">
          <mxGeometry relative="1" as="geometry" />
        </mxCell>
        <mxCell id="Bew-xmC5klucbXw2Gbvf-51" value="roupas" style="text;html=1;strokeColor=none;fillColor=none;align=center;verticalAlign=middle;whiteSpace=wrap;rounded=0;" parent="1" vertex="1">
          <mxGeometry x="400" y="885" width="60" height="30" as="geometry" />
        </mxCell>
        <mxCell id="Bew-xmC5klucbXw2Gbvf-54" value="estilo" style="ellipse;whiteSpace=wrap;html=1;" parent="1" vertex="1">
          <mxGeometry x="450" y="765.5" width="80" height="60" as="geometry" />
        </mxCell>
        <mxCell id="Bew-xmC5klucbXw2Gbvf-55" value="" style="endArrow=none;html=1;rounded=0;exitX=0.833;exitY=0;exitDx=0;exitDy=0;exitPerimeter=0;entryX=0.5;entryY=1;entryDx=0;entryDy=0;" parent="1" source="Bew-xmC5klucbXw2Gbvf-48" target="Bew-xmC5klucbXw2Gbvf-54" edge="1">
          <mxGeometry width="50" height="50" relative="1" as="geometry">
            <mxPoint x="470" y="870" as="sourcePoint" />
            <mxPoint x="530" y="810" as="targetPoint" />
          </mxGeometry>
        </mxCell>
        <mxCell id="Bew-xmC5klucbXw2Gbvf-57" value="tamanho" style="ellipse;whiteSpace=wrap;html=1;" parent="1" vertex="1">
          <mxGeometry x="375" y="717.5" width="80" height="61" as="geometry" />
        </mxCell>
        <mxCell id="Bew-xmC5klucbXw2Gbvf-60" value="" style="endArrow=none;html=1;rounded=0;entryX=0.5;entryY=1;entryDx=0;entryDy=0;exitX=0.338;exitY=-0.002;exitDx=0;exitDy=0;exitPerimeter=0;" parent="1" source="Bew-xmC5klucbXw2Gbvf-48" target="Bew-xmC5klucbXw2Gbvf-57" edge="1">
          <mxGeometry width="50" height="50" relative="1" as="geometry">
            <mxPoint x="410" y="860" as="sourcePoint" />
            <mxPoint x="420" y="780" as="targetPoint" />
          </mxGeometry>
        </mxCell>
        <mxCell id="Bew-xmC5klucbXw2Gbvf-62" value="organização para distribuição" style="ellipse;whiteSpace=wrap;html=1;" parent="1" vertex="1">
          <mxGeometry x="710" y="765.5" width="80" height="60" as="geometry" />
        </mxCell>
        <mxCell id="Bew-xmC5klucbXw2Gbvf-63" value="" style="endArrow=none;html=1;rounded=0;entryX=0.5;entryY=1;entryDx=0;entryDy=0;exitX=0.838;exitY=-0.04;exitDx=0;exitDy=0;exitPerimeter=0;" parent="1" source="Bew-xmC5klucbXw2Gbvf-4" target="Bew-xmC5klucbXw2Gbvf-62" edge="1">
          <mxGeometry width="50" height="50" relative="1" as="geometry">
            <mxPoint x="740" y="870" as="sourcePoint" />
            <mxPoint x="780" y="780" as="targetPoint" />
          </mxGeometry>
        </mxCell>
        <mxCell id="Bew-xmC5klucbXw2Gbvf-65" value="&lt;u&gt;CPF&lt;/u&gt;" style="ellipse;whiteSpace=wrap;html=1;" parent="1" vertex="1">
          <mxGeometry x="1175" y="691.25" width="92" height="65" as="geometry" />
        </mxCell>
        <mxCell id="Bew-xmC5klucbXw2Gbvf-68" value="" style="endArrow=none;html=1;rounded=0;entryX=0.5;entryY=1;entryDx=0;entryDy=0;exitX=0.5;exitY=0;exitDx=0;exitDy=0;" parent="1" source="Bew-xmC5klucbXw2Gbvf-5" target="Bew-xmC5klucbXw2Gbvf-65" edge="1">
          <mxGeometry width="50" height="50" relative="1" as="geometry">
            <mxPoint x="1220" y="860" as="sourcePoint" />
            <mxPoint x="1260" y="780" as="targetPoint" />
            <Array as="points" />
          </mxGeometry>
        </mxCell>
        <mxCell id="Bew-xmC5klucbXw2Gbvf-69" value="" style="endArrow=none;html=1;rounded=0;entryX=0.314;entryY=0.969;entryDx=0;entryDy=0;entryPerimeter=0;" parent="1" target="Bew-xmC5klucbXw2Gbvf-36" edge="1">
          <mxGeometry width="50" height="50" relative="1" as="geometry">
            <mxPoint x="1250" y="870" as="sourcePoint" />
            <mxPoint x="1300" y="820" as="targetPoint" />
          </mxGeometry>
        </mxCell>
        <mxCell id="Bew-xmC5klucbXw2Gbvf-71" value="&lt;u&gt;cód. de acesso do cliente&lt;/u&gt;" style="ellipse;whiteSpace=wrap;html=1;" parent="1" vertex="1">
          <mxGeometry x="578" y="252.5" width="70" height="50" as="geometry" />
        </mxCell>
        <mxCell id="Bew-xmC5klucbXw2Gbvf-72" value="" style="endArrow=none;html=1;rounded=0;entryX=0.5;entryY=1;entryDx=0;entryDy=0;exitX=0.75;exitY=0;exitDx=0;exitDy=0;" parent="1" source="qYe-6Fo6dkP2x0P8Gogv-20" target="Bew-xmC5klucbXw2Gbvf-71" edge="1">
          <mxGeometry width="50" height="50" relative="1" as="geometry">
            <mxPoint x="560" y="342.5" as="sourcePoint" />
            <mxPoint x="610" y="292.5" as="targetPoint" />
          </mxGeometry>
        </mxCell>
        <mxCell id="Bew-xmC5klucbXw2Gbvf-74" value="&lt;h1&gt;LOCADORA&lt;/h1&gt;&lt;p&gt;ANAGRAMA PARA A LOCADORA.&lt;/p&gt;" style="text;html=1;strokeColor=none;fillColor=none;spacing=5;spacingTop=-20;whiteSpace=wrap;overflow=hidden;rounded=0;" parent="1" vertex="1">
          <mxGeometry x="738" y="118" width="205" height="82" as="geometry" />
        </mxCell>
        <mxCell id="Bew-xmC5klucbXw2Gbvf-76" value="&lt;h1&gt;LOJA DE ROUPAS&lt;/h1&gt;&lt;p&gt;ANAGRAMA PARA LOJA DE ROUPAS.&lt;/p&gt;" style="text;html=1;strokeColor=none;fillColor=none;spacing=5;spacingTop=-20;whiteSpace=wrap;overflow=hidden;rounded=0;" parent="1" vertex="1">
          <mxGeometry x="738" y="570" width="230" height="120" as="geometry" />
        </mxCell>
        <mxCell id="Bew-xmC5klucbXw2Gbvf-87" value="divisão nas prateleiras" style="ellipse;whiteSpace=wrap;html=1;" parent="1" vertex="1">
          <mxGeometry x="650" y="690" width="70" height="50" as="geometry" />
        </mxCell>
        <mxCell id="Bew-xmC5klucbXw2Gbvf-88" value="" style="endArrow=none;html=1;rounded=0;exitX=0;exitY=0;exitDx=0;exitDy=0;entryX=0.5;entryY=1;entryDx=0;entryDy=0;" parent="1" source="Bew-xmC5klucbXw2Gbvf-62" target="Bew-xmC5klucbXw2Gbvf-87" edge="1">
          <mxGeometry width="50" height="50" relative="1" as="geometry">
            <mxPoint x="830" y="700" as="sourcePoint" />
            <mxPoint x="880" y="650" as="targetPoint" />
          </mxGeometry>
        </mxCell>
        <mxCell id="Bew-xmC5klucbXw2Gbvf-90" value="categorias" style="ellipse;whiteSpace=wrap;html=1;" parent="1" vertex="1">
          <mxGeometry x="768" y="690" width="70" height="50" as="geometry" />
        </mxCell>
        <mxCell id="Bew-xmC5klucbXw2Gbvf-91" value="" style="endArrow=none;html=1;rounded=0;entryX=0.5;entryY=1;entryDx=0;entryDy=0;exitX=0.722;exitY=0.072;exitDx=0;exitDy=0;exitPerimeter=0;" parent="1" source="Bew-xmC5klucbXw2Gbvf-62" target="Bew-xmC5klucbXw2Gbvf-90" edge="1">
          <mxGeometry width="50" height="50" relative="1" as="geometry">
            <mxPoint x="800" y="810" as="sourcePoint" />
            <mxPoint x="850" y="760" as="targetPoint" />
          </mxGeometry>
        </mxCell>
        <mxCell id="Bew-xmC5klucbXw2Gbvf-93" value="consoles" style="ellipse;whiteSpace=wrap;html=1;" parent="1" vertex="1">
          <mxGeometry x="470" y="150" width="70" height="50" as="geometry" />
        </mxCell>
        <mxCell id="Bew-xmC5klucbXw2Gbvf-94" value="" style="endArrow=none;html=1;rounded=0;entryX=0;entryY=0;entryDx=0;entryDy=0;exitX=0.5;exitY=1;exitDx=0;exitDy=0;" parent="1" source="Bew-xmC5klucbXw2Gbvf-93" target="qYe-6Fo6dkP2x0P8Gogv-53" edge="1">
          <mxGeometry width="50" height="50" relative="1" as="geometry">
            <mxPoint x="350" y="270" as="sourcePoint" />
            <mxPoint x="400" y="220" as="targetPoint" />
          </mxGeometry>
        </mxCell>
        <mxCell id="Bew-xmC5klucbXw2Gbvf-95" value="on-line" style="ellipse;whiteSpace=wrap;html=1;" parent="1" vertex="1">
          <mxGeometry x="570" y="150" width="70" height="50" as="geometry" />
        </mxCell>
        <mxCell id="Bew-xmC5klucbXw2Gbvf-96" value="" style="endArrow=none;html=1;rounded=0;entryX=0.5;entryY=1;entryDx=0;entryDy=0;exitX=0.716;exitY=0.023;exitDx=0;exitDy=0;exitPerimeter=0;" parent="1" source="qYe-6Fo6dkP2x0P8Gogv-53" target="Bew-xmC5klucbXw2Gbvf-95" edge="1">
          <mxGeometry width="50" height="50" relative="1" as="geometry">
            <mxPoint x="210" y="310" as="sourcePoint" />
            <mxPoint x="260" y="260" as="targetPoint" />
          </mxGeometry>
        </mxCell>
        <mxCell id="Bew-xmC5klucbXw2Gbvf-98" value="&lt;font style=&quot;vertical-align: inherit;&quot;&gt;&lt;font style=&quot;vertical-align: inherit;&quot;&gt;&lt;font style=&quot;vertical-align: inherit;&quot;&gt;&lt;font style=&quot;vertical-align: inherit;&quot;&gt;&lt;font style=&quot;vertical-align: inherit;&quot;&gt;&lt;font style=&quot;vertical-align: inherit;&quot;&gt;console ou caminho do jogo&lt;/font&gt;&lt;/font&gt;&lt;/font&gt;&lt;/font&gt;&lt;/font&gt;&lt;/font&gt;" style="ellipse;whiteSpace=wrap;html=1;" parent="1" vertex="1">
          <mxGeometry x="1100" y="482.5" width="80" height="50" as="geometry" />
        </mxCell>
        <mxCell id="Bew-xmC5klucbXw2Gbvf-99" value="&lt;u&gt;código&lt;/u&gt;" style="ellipse;whiteSpace=wrap;html=1;" parent="1" vertex="1">
          <mxGeometry x="170" y="867.5" width="100" height="65" as="geometry" />
        </mxCell>
        <mxCell id="Bew-xmC5klucbXw2Gbvf-100" value="" style="endArrow=none;html=1;rounded=0;entryX=0;entryY=0.5;entryDx=0;entryDy=0;exitX=1;exitY=0.5;exitDx=0;exitDy=0;" parent="1" source="Bew-xmC5klucbXw2Gbvf-99" target="Bew-xmC5klucbXw2Gbvf-48" edge="1">
          <mxGeometry width="50" height="50" relative="1" as="geometry">
            <mxPoint x="260" y="910" as="sourcePoint" />
            <mxPoint x="310" y="860" as="targetPoint" />
          </mxGeometry>
        </mxCell>
        <mxCell id="Bew-xmC5klucbXw2Gbvf-101" value="" style="endArrow=none;html=1;rounded=0;exitX=0;exitY=0.5;exitDx=0;exitDy=0;" parent="1" source="Bew-xmC5klucbXw2Gbvf-11" edge="1">
          <mxGeometry width="50" height="50" relative="1" as="geometry">
            <mxPoint x="450" y="650" as="sourcePoint" />
            <mxPoint x="520" y="680" as="targetPoint" />
          </mxGeometry>
        </mxCell>
        <mxCell id="Bew-xmC5klucbXw2Gbvf-102" value="" style="endArrow=none;html=1;rounded=0;" parent="1" edge="1">
          <mxGeometry width="50" height="50" relative="1" as="geometry">
            <mxPoint x="610" y="770" as="sourcePoint" />
            <mxPoint x="570" y="640" as="targetPoint" />
          </mxGeometry>
        </mxCell>
        <mxCell id="Bew-xmC5klucbXw2Gbvf-104" value="pix" style="ellipse;whiteSpace=wrap;html=1;" parent="1" vertex="1">
          <mxGeometry x="470" y="640" width="70" height="50" as="geometry" />
        </mxCell>
        <mxCell id="Bew-xmC5klucbXw2Gbvf-105" value="cartão de crédito" style="ellipse;whiteSpace=wrap;html=1;" parent="1" vertex="1">
          <mxGeometry x="520" y="575" width="90" height="65" as="geometry" />
        </mxCell>
        <mxCell id="Bew-xmC5klucbXw2Gbvf-106" value="dinheiro fisico" style="ellipse;whiteSpace=wrap;html=1;" parent="1" vertex="1">
          <mxGeometry x="620" y="576.5" width="80" height="62" as="geometry" />
        </mxCell>
        <mxCell id="Bew-xmC5klucbXw2Gbvf-107" value="" style="endArrow=none;html=1;rounded=0;entryX=0.5;entryY=1;entryDx=0;entryDy=0;exitX=0.341;exitY=-0.049;exitDx=0;exitDy=0;exitPerimeter=0;" parent="1" source="Bew-xmC5klucbXw2Gbvf-11" target="Bew-xmC5klucbXw2Gbvf-106" edge="1">
          <mxGeometry width="50" height="50" relative="1" as="geometry">
            <mxPoint x="620" y="730" as="sourcePoint" />
            <mxPoint x="670" y="680" as="targetPoint" />
          </mxGeometry>
        </mxCell>
        <mxCell id="JGBLU8ZZoNpqrJumYxHg-1" value="&lt;font style=&quot;vertical-align: inherit;&quot;&gt;&lt;font style=&quot;vertical-align: inherit;&quot;&gt;&lt;font style=&quot;vertical-align: inherit;&quot;&gt;&lt;font style=&quot;vertical-align: inherit;&quot;&gt;PS2&lt;/font&gt;&lt;/font&gt;&lt;/font&gt;&lt;/font&gt;" style="ellipse;whiteSpace=wrap;html=1;" vertex="1" parent="1">
          <mxGeometry x="1058" y="548" width="52" height="37" as="geometry" />
        </mxCell>
        <mxCell id="JGBLU8ZZoNpqrJumYxHg-3" value="" style="endArrow=none;html=1;rounded=0;exitX=0.643;exitY=0.039;exitDx=0;exitDy=0;exitPerimeter=0;entryX=0;entryY=1;entryDx=0;entryDy=0;" edge="1" parent="1" source="JGBLU8ZZoNpqrJumYxHg-1" target="Bew-xmC5klucbXw2Gbvf-98">
          <mxGeometry width="50" height="50" relative="1" as="geometry">
            <mxPoint x="1075" y="562.5" as="sourcePoint" />
            <mxPoint x="1125" y="512.5" as="targetPoint" />
          </mxGeometry>
        </mxCell>
        <mxCell id="JGBLU8ZZoNpqrJumYxHg-4" value="&lt;font style=&quot;vertical-align: inherit;&quot;&gt;&lt;font style=&quot;vertical-align: inherit;&quot;&gt;xbox 360&lt;/font&gt;&lt;/font&gt;" style="ellipse;whiteSpace=wrap;html=1;" vertex="1" parent="1">
          <mxGeometry x="1100" y="575" width="58" height="35" as="geometry" />
        </mxCell>
        <mxCell id="JGBLU8ZZoNpqrJumYxHg-5" value="" style="endArrow=none;html=1;rounded=0;entryX=0.5;entryY=1;entryDx=0;entryDy=0;exitX=0.5;exitY=0;exitDx=0;exitDy=0;" edge="1" parent="1" source="JGBLU8ZZoNpqrJumYxHg-4" target="Bew-xmC5klucbXw2Gbvf-98">
          <mxGeometry width="50" height="50" relative="1" as="geometry">
            <mxPoint x="1170" y="610" as="sourcePoint" />
            <mxPoint x="1220" y="560" as="targetPoint" />
          </mxGeometry>
        </mxCell>
        <mxCell id="JGBLU8ZZoNpqrJumYxHg-7" value="" style="endArrow=none;html=1;rounded=0;entryX=1;entryY=1;entryDx=0;entryDy=0;exitX=0.68;exitY=0.904;exitDx=0;exitDy=0;exitPerimeter=0;" edge="1" parent="1" source="JGBLU8ZZoNpqrJumYxHg-8" target="Bew-xmC5klucbXw2Gbvf-98">
          <mxGeometry width="50" height="50" relative="1" as="geometry">
            <mxPoint x="1185.148936376207" y="574.9765673432712" as="sourcePoint" />
            <mxPoint x="1267" y="520" as="targetPoint" />
          </mxGeometry>
        </mxCell>
        <mxCell id="JGBLU8ZZoNpqrJumYxHg-8" value="&lt;font style=&quot;vertical-align: inherit;&quot;&gt;&lt;font style=&quot;vertical-align: inherit;&quot;&gt;&lt;font style=&quot;vertical-align: inherit;&quot;&gt;&lt;font style=&quot;vertical-align: inherit;&quot;&gt;steam&lt;/font&gt;&lt;/font&gt;&lt;/font&gt;&lt;/font&gt;" style="ellipse;whiteSpace=wrap;html=1;direction=west;" vertex="1" parent="1">
          <mxGeometry x="1170" y="575" width="50" height="37" as="geometry" />
        </mxCell>
        <mxCell id="JGBLU8ZZoNpqrJumYxHg-9" value="&lt;font style=&quot;vertical-align: inherit;&quot;&gt;&lt;font style=&quot;vertical-align: inherit;&quot;&gt;xbox game pass&lt;/font&gt;&lt;/font&gt;" style="ellipse;whiteSpace=wrap;html=1;" vertex="1" parent="1">
          <mxGeometry x="1210" y="538" width="80" height="32" as="geometry" />
        </mxCell>
        <mxCell id="JGBLU8ZZoNpqrJumYxHg-10" value="" style="endArrow=none;html=1;rounded=0;exitX=0;exitY=0;exitDx=0;exitDy=0;entryX=0.995;entryY=0.666;entryDx=0;entryDy=0;entryPerimeter=0;" edge="1" parent="1" source="JGBLU8ZZoNpqrJumYxHg-9" target="Bew-xmC5klucbXw2Gbvf-98">
          <mxGeometry width="50" height="50" relative="1" as="geometry">
            <mxPoint x="1180" y="470" as="sourcePoint" />
            <mxPoint x="1230" y="420" as="targetPoint" />
          </mxGeometry>
        </mxCell>
      </root>
    </mxGraphModel>
  </diagram>
</mxfile>
